<?xml version="1.0" encoding="utf-8"?>
<!-- Generator: Adobe Illustrator 16.0.0, SVG Export Plug-In . SVG Version: 6.00 Build 0)  -->
<!DOCTYPE svg PUBLIC "-//W3C//DTD SVG 1.1//EN" "http://www.w3.org/Graphics/SVG/1.1/DTD/svg11.dtd">
<svg version="1.1" xmlns="http://www.w3.org/2000/svg" xmlns:xlink="http://www.w3.org/1999/xlink" x="0px" y="0px" width="188.5px"
	 height="64.167px" viewBox="0 0 188.5 64.167" enable-background="new 0 0 188.5 64.167" xml:space="preserve">
<g id="Layer_1">
</g>
<g id="Layer_2">
	<path fill="#FFFFFF" d="M27.366,16.48l-2.592,3.168c-1.568-1.057-3.008-1.584-4.32-1.584c-1.473,0-2.648,0.407-3.527,1.223
		c-0.881,0.816-1.32,1.881-1.32,3.193c0,1.184,0.879,3.008,2.64,5.471c0.288,0.417,1.216,1.584,2.784,3.505
		c2.176,2.56,3.264,5.056,3.264,7.487c0,2.912-1.056,5.265-3.168,7.057c-2.111,1.793-4.848,2.688-8.208,2.688
		c-3.521,0-6.464-1.071-8.832-3.216l2.448-3.601c2.176,1.729,4.176,2.593,6,2.593c1.567,0,2.863-0.479,3.889-1.44
		c1.023-0.959,1.535-2.176,1.535-3.647c0-1.567-0.72-3.344-2.16-5.328c-0.031-0.032-1.12-1.392-3.264-4.08
		c-2.145-2.688-3.216-5.136-3.216-7.344c0-2.528,0.991-4.608,2.976-6.24s4.496-2.448,7.536-2.448
		C22.614,13.936,25.126,14.784,27.366,16.48z M59.333,14.512l-6.239,33.6h-6.048l3.072-16.416H37.542L34.47,48.111h-6.048
		l6.239-33.6h6.049l-2.448,13.057h12.624l2.4-13.057H59.333z M85.109,48.111h-6.192l-1.056-9.215H67.542l-4.896,9.215h-5.568
		l18.625-33.6h4.416L85.109,48.111z M77.43,34.768c-0.673-5.279-1.073-9.727-1.2-13.344c-1.696,3.68-3.92,8.129-6.672,13.344H77.43z
		 M114.053,23.535c0,3.426-1.265,6.161-3.792,8.209c-2.783,2.271-6.08,3.408-9.888,3.408c-0.384,0-0.72-0.016-1.009-0.049
		l0.721-3.888c2.336,0.032,4.2-0.607,5.592-1.92c1.393-1.312,2.088-3.088,2.088-5.328c0-2.208-0.736-3.744-2.207-4.608
		c-0.769-0.447-2.064-0.672-3.889-0.672h-1.393l-5.471,29.424h-6.049l6.24-33.6h7.632c3.775,0,6.544,0.705,8.304,2.112
		C113.013,18.288,114.053,20.592,114.053,23.535z M137.14,14.512l-0.768,4.128h-10.128l-1.776,9.792h9.841l-0.769,4.129h-9.84
		l-2.16,11.424h11.904l-0.768,4.127h-17.952l6.239-33.6H137.14z M152.934,48.064h-6.72V14.464h6.72V48.064z M183.798,18.928h-10.416
		v29.137h-6.72V18.928h-10.32v-4.464h27.456V18.928z"/>
</g>
</svg>
